<svg width="64" height="64" viewBox="0 0 64 64" fill="none" xmlns="http://www.w3.org/2000/svg">
  <!-- Soft Circular Background -->
  <circle cx="32" cy="32" r="30" fill="#F4EFE6"/>
  
  <!-- Ship Bridge / Cabin -->
  <rect x="36" y="22" width="8" height="12" rx="1.5" fill="#FFFFFF" stroke="#1B4D3E" stroke-width="2"/>
  <rect x="39" y="16" width="3" height="6" fill="#C5A059" stroke="#1B4D3E" stroke-width="1.5"/>
  <circle cx="40" cy="26" r="1.5" fill="#1B4D3E"/>
  
  <!-- Shipping Cargo Containers -->
  <rect x="18" y="26" width="8" height="8" rx="1" fill="#C5A059" stroke="#1B4D3E" stroke-width="1.5"/>
  <rect x="27" y="26" width="8" height="8" rx="1" fill="#1B4D3E" stroke="#1B4D3E" stroke-width="1.5"/>
  <line x1="22" y1="28" x2="22" y2="32" stroke="#FFFFFF" stroke-width="1"/>
  <line x1="31" y1="28" x2="31" y2="32" stroke="#FFFFFF" stroke-width="1"/>
  
  <!-- Ship Hull -->
  <path d="M12 34L18 45H46L52 34H12Z" fill="#FFFFFF" stroke="#1B4D3E" stroke-width="2.5" stroke-linejoin="round"/>
  <line x1="16" y1="39" x2="48" y2="39" stroke="#C5A059" stroke-width="2"/>
  
  <!-- Ocean Waves -->
  <path d="M10 49C13 47 17 47 20 49C23 51 27 51 30 49C33 47 37 47 40 49C43 51 47 51 50 49C52 47.7 54 48 56 49" stroke="#1B4D3E" stroke-width="2.5" stroke-linecap="round"/>
</svg>
